<?xml version="1.0" encoding="utf-8"?>
<!-- Generator: Adobe Illustrator 23.0.5, SVG Export Plug-In . SVG Version: 6.00 Build 0)  -->
<svg version="1.1" xmlns="http://www.w3.org/2000/svg" xmlns:xlink="http://www.w3.org/1999/xlink" x="0px" y="0px"
	 viewBox="0 0 257.6 44.3" style="enable-background:new 0 0 257.6 44.3;" xml:space="preserve">
<style type="text/css">
	.st0{fill:#374059;}
	.st1{fill:#E5E5E5;}
	.st2{fill:#FFCC67;}
	.st3{fill:#36383D;}
	.st4{fill:#FFFFFF;}
	.st5{fill:#F9E1E1;}
	.st6{fill:#2A3A5E;}
</style>
<g id="Layer_1">
</g>
<g id="Layer_6">
	<g>
		<path class="st5" d="M0,0v44.3h47V0H0z M40.4,10.3L36.7,17l-3.9-5.7L40.4,10.3z M30.2,3l0.7,7.6L24.4,8L30.2,3z M16.2,3L22,8
			l-6.4,2.6L16.2,3z M13.6,11.3L9.7,17L6,10.3L13.6,11.3z M9.8,18.6v6.9L3,22.1L9.8,18.6z M6,34.1l3.6-6.7l3.9,5.7L6,34.1z
			 M16.2,41.4l-0.7-7.6l6.4,2.6L16.2,41.4z M30.2,41.4l-5.8-5l6.4-2.6L30.2,41.4z M23.1,33.7c-6.4,0-11.6-5.2-11.6-11.6
			s5.2-11.6,11.6-11.6c6.4,0,11.6,5.2,11.6,11.6S29.5,33.7,23.1,33.7z M32.8,33.1l3.9-5.7l3.7,6.7L32.8,33.1z M36.6,25.5v-6.9
			l6.8,3.5L36.6,25.5z"/>
		<circle class="st5" cx="23.1" cy="22.2" r="6.3"/>
	</g>
</g>
<g id="Layer_4">
</g>
<g id="Layer_5">
</g>
<g id="Layer_3">
</g>
<g id="Layer_2">
	<g>
		<path class="st4" d="M85.3,11.9c-1,0.1-1.7,0.2-2.2,0.3s-0.8,0.5-0.9,1c-0.2,0.5-0.3,1.2-0.3,2.3v16.6c0,1.1,0.1,1.8,0.3,2.3
			c0.2,0.5,0.5,0.8,0.9,1s1.2,0.3,2.2,0.3v0.8c-1.2-0.1-3-0.1-5.4-0.1c-2.2,0-4,0-5.3,0.1v-0.8c1-0.1,1.7-0.2,2.2-0.3
			c0.5-0.2,0.8-0.5,0.9-1c0.2-0.5,0.3-1.2,0.3-2.3v-8.4H65.2v8.4c0,1.1,0.1,1.8,0.3,2.3c0.2,0.5,0.5,0.8,0.9,1
			c0.5,0.2,1.2,0.3,2.2,0.3v0.8c-1.3-0.1-3.1-0.1-5.3-0.1c-2.4,0-4.2,0-5.4,0.1v-0.8c1-0.1,1.7-0.2,2.2-0.3s0.8-0.5,0.9-1
			c0.2-0.5,0.3-1.2,0.3-2.3V15.5c0-1.1-0.1-1.8-0.3-2.3c-0.2-0.5-0.5-0.8-0.9-1s-1.2-0.3-2.2-0.3V11c1.2,0.1,3,0.1,5.4,0.1
			c2.2,0,4,0,5.3-0.1v0.8c-1,0.1-1.7,0.2-2.2,0.3c-0.5,0.2-0.8,0.5-0.9,1c-0.2,0.5-0.3,1.2-0.3,2.3v7.4H78v-7.4
			c0-1.1-0.1-1.8-0.3-2.3c-0.2-0.5-0.5-0.8-0.9-1c-0.5-0.2-1.2-0.3-2.2-0.3V11c1.3,0.1,3.1,0.1,5.3,0.1c2.4,0,4.2,0,5.4-0.1V11.9z"
			/>
		<path class="st4" d="M108.6,12c1.9,1,3.5,2.5,4.5,4.5c1.1,2,1.6,4.3,1.6,7.1c0,2.7-0.6,5.1-1.7,7.1c-1.1,2.1-2.6,3.7-4.6,4.8
			c-2,1.1-4.2,1.7-6.7,1.7c-2.6,0-4.8-0.5-6.8-1.5c-1.9-1-3.5-2.5-4.5-4.5c-1.1-2-1.6-4.3-1.6-7.1c0-2.7,0.6-5.1,1.7-7.1
			c1.1-2.1,2.6-3.7,4.6-4.8c2-1.1,4.2-1.7,6.7-1.7C104.4,10.4,106.7,10.9,108.6,12z M97.2,12.8c-1.3,1.1-2.3,2.6-3,4.5s-1,4.1-1,6.6
			c0,2.5,0.4,4.7,1.2,6.6s1.8,3.4,3.2,4.4c1.3,1,2.8,1.5,4.5,1.5c1.7,0,3.2-0.5,4.5-1.6c1.3-1.1,2.3-2.6,3-4.5
			c0.7-1.9,1.1-4.1,1.1-6.6c0-2.5-0.4-4.7-1.2-6.6c-0.8-1.9-1.8-3.4-3.2-4.4c-1.3-1-2.8-1.5-4.5-1.5C100,11.2,98.5,11.7,97.2,12.8z"
			/>
		<path class="st4" d="M129.1,11.9c-1,0.1-1.7,0.2-2.2,0.3c-0.5,0.2-0.8,0.5-0.9,1c-0.2,0.5-0.3,1.2-0.3,2.3v16.6
			c0,1.1,0.1,1.8,0.3,2.3c0.2,0.5,0.5,0.8,0.9,0.9c0.5,0.2,1.2,0.2,2.2,0.2h2.6c1.9,0,3.4-0.6,4.5-1.7c1.1-1.1,1.7-3.1,2-5.7h1
			c-0.1,0.9-0.1,2-0.1,3.4c0,1.5,0.1,3.1,0.3,5c-1.8-0.1-4.9-0.1-9.2-0.1c-5.2,0-9.1,0-11.8,0.1v-0.8c1-0.1,1.7-0.2,2.2-0.3
			s0.8-0.5,0.9-1c0.2-0.5,0.3-1.2,0.3-2.3V15.5c0-1.1-0.1-1.8-0.3-2.3c-0.2-0.5-0.5-0.8-0.9-1s-1.2-0.3-2.2-0.3V11
			c1.2,0.1,3,0.1,5.4,0.1c2.2,0,4,0,5.3-0.1V11.9z"/>
		<path class="st4" d="M153.1,11.9c-1,0.1-1.7,0.2-2.2,0.3c-0.5,0.2-0.8,0.5-0.9,1c-0.2,0.5-0.3,1.2-0.3,2.3v16.6
			c0,1.1,0.1,1.8,0.3,2.3c0.2,0.5,0.5,0.8,0.9,1c0.5,0.2,1.2,0.3,2.2,0.3v0.8c-1.3-0.1-3.1-0.1-5.3-0.1c-2.4,0-4.2,0-5.4,0.1v-0.8
			c1-0.1,1.7-0.2,2.2-0.3s0.8-0.5,0.9-1c0.2-0.5,0.3-1.2,0.3-2.3V15.5c0-1.1-0.1-1.8-0.3-2.3c-0.2-0.5-0.5-0.8-0.9-1
			s-1.2-0.3-2.2-0.3V11c1.2,0.1,3,0.1,5.4,0.1c2.2,0,4,0,5.3-0.1V11.9z"/>
		<path class="st4" d="M178,14.2c2.2,2.1,3.3,5.2,3.3,9.3c0,2.6-0.5,4.9-1.6,6.9c-1.1,2-2.6,3.5-4.6,4.6c-2,1.1-4.5,1.6-7.3,1.6
			l-2.4,0c-1.6-0.1-2.7-0.1-3.4-0.1c-2.3,0-4,0-5.2,0.1v-0.8c1-0.1,1.7-0.2,2.2-0.3s0.8-0.5,0.9-1c0.2-0.5,0.3-1.2,0.3-2.3V15.5
			c0-1.1-0.1-1.8-0.3-2.3c-0.2-0.5-0.5-0.8-0.9-1s-1.2-0.3-2.2-0.3V11c1,0.1,2.3,0.1,4.1,0.1l3.6,0c1.9-0.1,3.2-0.1,3.8-0.1
			C172.5,11,175.8,12.1,178,14.2z M165.1,12.1c-0.4,0.2-0.7,0.5-0.9,1.1c-0.2,0.5-0.3,1.3-0.3,2.3v16.8c0,1,0.1,1.8,0.3,2.3
			s0.5,0.9,0.9,1c0.4,0.2,1.1,0.3,2,0.3c2.5,0,4.5-0.5,6-1.4c1.5-0.9,2.5-2.2,3.1-4c0.6-1.8,0.9-4,0.9-6.8c0-4.1-0.8-7.1-2.3-9
			s-4.1-2.9-7.7-2.9C166.2,11.8,165.5,11.9,165.1,12.1z"/>
		<path class="st4" d="M208,35.7v0.8c-1.1-0.1-2.6-0.1-4.5-0.1c-2.4,0-4.2,0-5.4,0.1v-0.8c1-0.1,1.8-0.2,2.3-0.4
			c0.5-0.2,0.7-0.6,0.7-1.1c0-0.4-0.2-1.1-0.6-2l-2.1-4.8h-10.2l-1.4,3.2c-0.5,1.1-0.7,2-0.7,2.7c0,0.7,0.3,1.3,0.8,1.7
			c0.5,0.4,1.4,0.7,2.5,0.8v0.8c-0.8-0.1-2.1-0.1-3.8-0.1c-1.7,0-2.9,0-3.7,0.1v-0.8c0.8-0.2,1.4-0.6,1.9-1.3c0.5-0.7,1-1.5,1.5-2.6
			l9.3-21h0.7l9.8,22.2C205.8,34.8,206.8,35.7,208,35.7z M198.1,26.6l-4.7-10.7l-4.8,10.7H198.1z"/>
		<path class="st4" d="M229.5,11.9l-14.8,23.7h9.2c1.5,0,2.6-0.5,3.3-1.6s1.2-2.9,1.5-5.4h1c-0.1,0.9-0.1,2-0.1,3.4
			c0,1.3,0.1,2.9,0.3,4.5c-2-0.1-5.3-0.1-10-0.1c-4.5,0-7.7,0-9.8,0.1v-0.8L224.9,12H216c-1.5,0-2.6,0.5-3.3,1.6s-1.2,2.9-1.5,5.4
			h-1c0.1-0.9,0.1-2,0.1-3.4c0-1.3-0.1-2.9-0.3-4.5c2,0.1,5.3,0.1,10,0.1c4.3,0,7.4,0,9.4-0.1V11.9z"/>
		<path class="st4" d="M254.7,36.6c-1.8-0.1-4.9-0.1-9.2-0.1c-5.2,0-9.1,0-11.8,0.1v-0.8c1-0.1,1.7-0.2,2.2-0.3s0.8-0.5,0.9-1
			c0.2-0.5,0.3-1.2,0.3-2.3V15.5c0-1.1-0.1-1.8-0.3-2.3c-0.2-0.5-0.5-0.8-0.9-1s-1.2-0.3-2.2-0.3V11c2.7,0.1,6.6,0.1,11.8,0.1
			c3.9,0,6.7,0,8.4-0.1c-0.2,1.7-0.3,3.2-0.3,4.5c0,1.1,0,2,0.1,2.6h-1c-0.2-2.3-0.7-3.9-1.4-4.8c-0.8-0.9-2-1.4-3.8-1.4h-3.1
			c-1,0-1.7,0.1-2.2,0.2c-0.5,0.2-0.8,0.5-0.9,0.9c-0.2,0.5-0.3,1.2-0.3,2.3v7.8h3.5c0.9,0,1.6-0.2,2.1-0.7c0.5-0.5,0.8-1,1-1.5
			c0.2-0.5,0.3-1.2,0.5-2.1h1c-0.1,1-0.1,2-0.1,3.1v1.6c0,1.1,0.1,2.7,0.3,4.7h-1c-0.2-1.3-0.5-2.4-1-3.1c-0.5-0.8-1.4-1.1-2.6-1.1
			h-3.5v8c0,1.1,0.1,1.8,0.3,2.3c0.2,0.5,0.5,0.8,0.9,0.9c0.5,0.2,1.2,0.2,2.2,0.2h3.1c1.4,0,2.5-0.2,3.3-0.7
			c0.8-0.4,1.4-1.2,1.8-2.2s0.7-2.4,0.9-4.2h1c-0.1,0.8-0.1,1.8-0.1,3C254.4,33.1,254.5,34.7,254.7,36.6z"/>
	</g>
</g>
</svg>
